<?xml version="1.0" standalone="no"?>
<!DOCTYPE svg PUBLIC "-//W3C//DTD SVG 20010904//EN"
 "http://www.w3.org/TR/2001/REC-SVG-20010904/DTD/svg10.dtd">
<svg version="1.0" xmlns="http://www.w3.org/2000/svg"
 width="1350.000000pt" height="900.000000pt" viewBox="0 0 1350.000000 900.000000"
 preserveAspectRatio="xMidYMid meet">
<metadata>
Created by potrace 1.10, written by Peter Selinger 2001-2011
</metadata>
<g transform="translate(0.000000,900.000000) scale(0.100000,-0.100000)"
fill="#000" stroke="none">
<path d="M1830 7551 c-37 -9 -109 -59 -153 -105 -43 -45 -157 -211 -157 -228
0 -6 -6 -19 -13 -27 -7 -9 -28 -50 -46 -91 -52 -115 -55 -123 -101 -250 -7
-19 -15 -48 -18 -65 -2 -16 -11 -39 -18 -50 -8 -11 -14 -29 -14 -40 0 -12 -6
-41 -14 -66 -21 -70 -38 -140 -47 -194 -4 -27 -12 -72 -18 -100 -25 -126 -35
-232 -37 -384 -2 -182 3 -168 -85 -231 -125 -90 -217 -135 -309 -152 -152 -27
-291 31 -341 143 -25 55 -24 78 6 130 29 52 31 79 8 107 -29 33 -58 36 -88 9
-66 -56 -85 -200 -40 -302 56 -125 221 -224 375 -224 65 0 202 33 250 60 8 5
30 15 48 24 42 19 152 95 152 106 0 5 9 13 21 19 26 15 45 0 55 -43 14 -63 84
-140 137 -151 81 -16 117 2 117 58 0 38 -25 66 -61 66 -47 1 -92 62 -104 141
-7 44 -6 46 47 101 71 74 138 154 138 166 0 5 7 15 16 23 8 7 32 37 52 67 51
75 60 88 120 189 29 48 57 95 62 103 48 80 200 412 200 436 0 7 6 25 14 41 18
36 36 88 46 133 4 19 13 49 18 65 20 59 35 152 39 245 5 112 -15 184 -66 236
-41 41 -114 55 -191 35z m120 -153 c11 -24 20 -54 20 -68 1 -58 -49 -289 -81
-380 -7 -19 -23 -66 -37 -105 -25 -71 -39 -104 -86 -207 -14 -31 -31 -67 -36
-80 -5 -13 -14 -31 -20 -40 -18 -31 -29 -52 -54 -103 -55 -108 -157 -265 -308
-474 -10 -15 -23 -21 -32 -18 -13 5 -15 17 -10 64 3 32 10 74 15 93 4 19 11
67 14 105 3 39 12 102 20 140 8 39 22 108 31 155 9 47 22 105 29 130 7 25 20
70 29 100 125 436 309 728 459 730 23 0 31 -7 47 -42z M2651 7521 c-37 -35 -41 -76 -10 -114 l20 -27 -47 -67 c-26 -38 -60
-85 -75 -106 -26 -36 -27 -42 -15 -70 11 -28 17 -32 57 -35 l44 -3 61 93 c33
51 68 107 76 123 8 17 22 45 31 63 28 55 22 99 -17 138 -44 44 -82 45 -125 5z M3560 7524 c-58 -42 -89 -76 -148 -164 -52 -77 -149 -263 -217 -415
-15 -33 -33 -73 -40 -90 -63 -139 -75 -167 -75 -178 0 -6 -7 -21 -15 -31 -8
-11 -15 -29 -15 -41 0 -12 -4 -25 -9 -30 -5 -6 -25 -53 -46 -105 -20 -52 -42
-108 -48 -124 -33 -83 -74 -138 -199 -272 -62 -65 -72 -98 -40 -127 11 -10 35
-17 56 -17 32 0 37 -3 31 -17 -13 -34 -45 -196 -45 -232 0 -42 27 -123 54
-163 24 -37 96 -72 133 -65 54 10 99 32 168 84 82 60 246 228 323 331 41 54
60 72 78 72 17 0 24 -6 24 -19 0 -11 -4 -21 -9 -23 -10 -3 -51 -191 -51 -230
0 -31 30 -115 54 -150 24 -37 96 -72 133 -65 117 22 227 112 496 409 103 114
117 146 79 181 -19 18 -59 22 -77 9 -5 -4 -57 -59 -114 -122 -152 -167 -314
-325 -351 -340 -44 -18 -77 -2 -85 44 -13 65 35 291 90 431 7 17 22 58 35 92
12 35 39 82 59 105 65 77 192 239 266 342 16 22 40 52 52 66 13 14 23 28 23
32 0 4 20 34 44 65 108 143 316 468 316 496 0 7 7 21 15 31 22 29 20 149 -2
189 -31 55 -52 66 -120 67 -66 0 -101 -17 -166 -78 -67 -64 -193 -284 -302
-527 -15 -33 -33 -73 -40 -90 -63 -139 -75 -167 -75 -178 0 -6 -7 -21 -15 -31
-8 -11 -15 -29 -15 -41 0 -12 -4 -25 -9 -30 -5 -6 -25 -53 -45 -105 -92 -236
-71 -206 -329 -474 -275 -287 -383 -392 -416 -406 -45 -18 -78 -2 -86 44 -13
65 35 291 90 431 7 17 22 58 35 92 12 35 39 82 59 105 65 77 192 239 266 342
16 22 40 52 52 66 13 14 23 28 23 32 0 4 20 34 44 65 108 143 316 468 316 496
0 7 7 21 15 31 22 29 20 149 -2 189 -32 56 -52 66 -123 66 -52 -1 -72 -5 -100
-25z m118 -128 c5 -58 -38 -136 -262 -473 -169 -255 -189 -283 -204 -283 -21
0 -26 29 -8 49 9 10 16 21 16 26 0 8 75 165 170 356 63 128 149 265 200 319
59 62 83 64 88 6z m720 0 c5 -58 -38 -136 -262 -473 -169 -255 -189 -283 -204
-283 -21 0 -26 29 -8 49 9 10 16 21 16 26 0 8 75 165 170 356 63 128 149 265
200 319 59 62 83 64 88 6z"/>
<path d="M10779 7518 c-85 -61 -148 -141 -215 -273 -13 -27 -29 -57 -34 -65
-11 -20 -92 -189 -125 -265 -15 -33 -36 -80 -47 -105 -28 -61 -41 -92 -78
-185 -18 -44 -38 -93 -45 -110 -7 -16 -21 -50 -30 -75 -10 -25 -23 -57 -31
-72 -8 -14 -14 -33 -14 -42 0 -19 -37 -79 -71 -117 -13 -14 -48 -56 -78 -92
-30 -37 -60 -67 -66 -67 -6 0 -41 -33 -77 -72 -95 -105 -295 -302 -348 -341
-87 -65 -114 -72 -152 -39 -22 19 -24 108 -4 167 7 22 21 65 31 95 10 30 24
62 31 71 8 8 14 19 14 22 0 4 11 24 23 45 85 135 218 403 215 432 -2 19 -15
31 -53 49 -44 21 -65 24 -170 25 -132 1 -172 -9 -300 -71 -97 -48 -107 -54
-171 -104 -75 -58 -149 -136 -227 -240 -128 -169 -465 -488 -534 -505 -34 -9
-71 28 -78 80 -14 94 41 338 125 556 12 30 25 70 30 88 5 19 11 36 14 40 4 3
94 5 201 3 l194 -3 16 32 c14 27 14 37 5 61 -15 34 -5 33 -197 29 -83 -1 -156
1 -162 5 -8 4 -4 21 14 53 15 26 45 90 67 142 41 97 78 180 106 238 23 48 20
88 -9 111 -53 45 -82 18 -143 -129 -26 -63 -53 -128 -61 -145 -7 -16 -36 -84
-63 -150 l-51 -120 -114 0 c-126 0 -147 -8 -147 -56 0 -16 9 -38 21 -50 19
-19 28 -20 90 -14 87 9 98 -6 48 -64 -19 -22 -54 -66 -79 -97 -25 -32 -73 -87
-107 -123 -35 -36 -63 -71 -63 -79 0 -7 7 -24 16 -37 13 -19 25 -25 55 -25 35
0 41 4 65 45 28 48 35 53 53 32 8 -11 4 -32 -15 -88 -22 -62 -26 -93 -27 -194
-1 -114 0 -122 26 -166 34 -57 50 -71 106 -93 41 -16 47 -16 95 1 28 9 74 32
101 50 69 44 184 145 220 193 47 62 61 53 55 -33 -2 -44 36 -131 75 -167 27
-26 115 -60 155 -60 28 0 103 23 170 54 25 11 76 51 114 89 74 74 96 80 96 23
0 -58 44 -136 77 -136 8 0 25 -7 38 -16 54 -36 171 12 294 121 78 68 271 267
304 312 21 30 38 43 54 43 29 0 29 -10 -2 -98 -19 -55 -25 -92 -25 -158 0 -87
7 -111 53 -173 19 -26 87 -61 118 -61 30 0 144 58 191 96 82 68 214 204 288
298 54 69 81 95 98 96 28 0 28 -10 -3 -98 -19 -55 -25 -92 -25 -158 0 -87 7
-111 53 -173 19 -26 87 -61 118 -61 30 0 144 58 191 96 70 58 204 192 290 292
58 65 87 92 104 92 14 0 34 15 56 42 18 24 40 50 48 59 8 8 40 46 70 83 84
104 201 226 231 242 24 12 30 12 49 -4 l22 -18 -20 -70 c-24 -80 -39 -126 -58
-172 -8 -18 -14 -39 -14 -46 0 -8 -7 -27 -15 -42 -8 -16 -15 -36 -15 -44 0 -8
-7 -24 -15 -34 -8 -11 -15 -28 -15 -39 0 -10 -6 -31 -14 -45 -27 -53 -46 -140
-46 -215 0 -71 2 -79 31 -112 30 -34 33 -35 105 -35 64 0 80 4 125 31 109 64
259 200 322 292 35 51 60 77 74 77 24 0 13 -52 -22 -110 -19 -32 -35 -65 -35
-73 0 -9 -4 -18 -8 -21 -4 -2 -25 -47 -47 -99 -39 -94 -40 -96 -104 -134 -124
-74 -165 -102 -304 -206 -189 -141 -312 -275 -356 -387 -8 -19 -16 -64 -18
-100 -4 -55 0 -73 21 -117 95 -188 325 -169 482 40 63 85 148 252 199 392 10
28 25 59 32 70 7 11 13 27 13 36 0 10 6 30 14 46 8 15 22 48 31 73 26 69 52
114 72 125 10 6 36 21 58 35 22 14 47 29 57 32 24 10 184 115 253 167 169 127
355 307 355 344 0 29 -38 67 -67 67 -14 0 -62 -41 -135 -112 -94 -93 -166
-157 -243 -216 -5 -4 -29 -22 -51 -40 -23 -17 -45 -32 -49 -32 -4 0 -25 -16
-46 -35 -41 -37 -66 -44 -75 -22 -3 8 15 54 39 103 25 49 55 114 67 144 12 30
28 70 36 88 35 81 45 104 88 207 25 61 46 114 46 119 0 5 6 17 14 25 8 9 17
32 21 51 5 28 2 42 -15 63 -41 52 -81 34 -139 -60 -23 -37 -47 -77 -54 -88 -6
-11 -66 -91 -132 -179 -125 -168 -326 -380 -424 -448 -56 -40 -105 -49 -115
-23 -6 18 2 72 17 100 6 11 14 33 18 50 7 28 41 121 89 245 39 100 90 283 90
323 0 32 -34 108 -58 130 -10 9 -36 20 -58 25 -91 19 -161 -26 -334 -219 -173
-192 -190 -209 -208 -209 -9 0 -55 -41 -102 -92 -152 -164 -326 -336 -361
-357 -19 -12 -42 -21 -51 -21 -31 0 -58 37 -58 78 0 61 42 250 81 362 47 137
73 197 95 223 28 32 135 167 159 199 11 15 54 72 95 125 41 54 87 116 102 138
15 22 44 63 65 90 42 56 183 265 183 271 0 1 12 22 28 46 43 68 49 79 81 145
53 107 51 173 -6 256 -25 37 -27 37 -93 37 -59 0 -72 -4 -111 -32 -85 -61
-148 -141 -215 -273 -13 -27 -29 -57 -34 -65 -11 -20 -92 -189 -125 -265 -15
-33 -36 -80 -47 -105 -28 -61 -41 -92 -78 -185 -18 -44 -38 -93 -45 -110 -7
-16 -21 -50 -30 -75 -10 -25 -23 -57 -31 -72 -8 -14 -14 -33 -14 -42 0 -20
-27 -63 -75 -122 -22 -26 -59 -69 -81 -96 -23 -27 -55 -59 -71 -71 -16 -12
-60 -55 -98 -96 -147 -157 -314 -321 -346 -340 -19 -12 -42 -21 -51 -21 -31 0
-58 37 -58 78 0 61 42 250 81 362 47 137 73 197 95 223 28 32 135 167 159 199
11 15 54 72 95 125 41 54 87 116 102 138 15 22 44 63 65 90 42 56 183 265 183
271 0 1 12 22 28 46 43 68 49 79 81 145 53 107 51 173 -6 256 -25 37 -27 37
-93 37 -59 0 -72 -4 -111 -32z m112 -88 c10 -6 19 -19 19 -30 0 -18 -22 -78
-41 -110 -5 -8 -13 -24 -18 -35 -5 -11 -21 -37 -35 -58 -14 -21 -26 -40 -26
-43 0 -3 -19 -33 -42 -68 -24 -34 -47 -69 -53 -78 -20 -33 -175 -263 -183
-274 -5 -6 -12 -20 -16 -31 -9 -27 -52 -67 -65 -58 -19 11 -12 34 33 123 43
85 138 282 150 312 3 8 16 31 27 50 12 19 32 53 43 75 45 83 94 151 154 212
26 26 27 27 53 13z m727 -2 c7 -7 12 -20 12 -30 0 -17 -23 -77 -41 -108 -5 -8
-13 -24 -18 -35 -5 -11 -21 -37 -35 -58 -14 -21 -26 -40 -26 -43 0 -3 -19 -33
-42 -68 -24 -34 -47 -69 -53 -78 -20 -33 -175 -263 -183 -274 -5 -6 -12 -20
-16 -31 -9 -27 -52 -67 -65 -58 -19 11 -12 34 33 123 43 85 138 282 150 312 3
8 16 31 27 50 12 19 32 53 43 75 30 55 76 124 106 159 67 78 84 88 108 64z
m-2109 -1052 c8 -10 3 -24 -24 -59 -19 -25 -40 -56 -45 -69 -6 -13 -26 -50
-45 -83 -19 -33 -37 -67 -40 -75 -4 -8 -14 -33 -23 -55 -44 -110 -205 -312
-310 -389 -82 -60 -175 -82 -216 -51 -74 56 -76 165 -6 316 35 74 73 129 153
219 49 55 174 159 191 160 5 0 17 6 25 14 62 54 311 107 340 72z m2631 -1110
c0 -6 -20 -51 -45 -99 -25 -48 -45 -96 -45 -106 0 -10 -7 -24 -15 -31 -8 -7
-15 -19 -15 -27 0 -23 -88 -193 -133 -258 -52 -72 -122 -120 -179 -120 -32 0
-46 7 -69 33 -39 44 -45 74 -24 130 43 113 148 228 344 377 29 22 72 56 94 76
57 49 87 58 87 25z M6671 6503 c-36 -7 -98 -49 -113 -77 -7 -13 -33 -56 -57 -96 -68
-110 -90 -185 -91 -307 0 -116 18 -180 70 -244 30 -38 38 -59 21 -59 -5 0 -16
-6 -23 -13 -32 -33 -148 -99 -196 -113 -42 -12 -59 -13 -88 -4 -129 43 -109
303 41 530 46 68 71 97 172 196 100 97 115 131 72 155 -38 20 -81 2 -164 -70
-93 -79 -186 -195 -236 -294 -23 -45 -56 -89 -99 -130 -79 -75 -150 -137 -157
-137 -2 0 -31 -20 -63 -45 -32 -25 -61 -45 -65 -45 -3 0 -28 -18 -56 -40 -58
-46 -65 -48 -74 -20 -4 13 10 47 44 105 28 47 51 88 51 92 0 3 12 31 26 62 14
31 35 76 46 101 11 25 24 52 29 60 5 8 12 22 15 30 7 20 24 56 78 171 61 129
61 141 -10 168 -69 26 -214 29 -271 6 -19 -8 -46 -15 -58 -15 -23 0 -35 -5
-125 -51 -25 -13 -55 -28 -67 -34 -13 -5 -23 -13 -23 -17 0 -4 -13 -14 -28
-22 -35 -18 -89 -64 -160 -136 -211 -214 -311 -475 -238 -619 37 -71 84 -108
149 -116 53 -7 166 9 177 25 3 3 38 26 78 49 39 24 72 47 72 51 0 4 18 15 40
26 21 10 44 29 51 41 16 29 33 35 56 18 17 -13 17 -14 -6 -38 -13 -15 -30 -23
-38 -20 -14 5 -36 -18 -58 -62 -6 -11 -19 -24 -30 -30 -11 -5 -34 -20 -50 -31
-17 -12 -41 -25 -55 -29 -14 -4 -32 -13 -40 -19 -8 -6 -31 -20 -50 -30 -36
-19 -159 -109 -196 -142 -19 -18 -128 -139 -142 -159 -36 -49 -73 -111 -99
-165 -61 -126 -63 -135 -63 -244 0 -98 1 -105 29 -143 45 -63 80 -83 143 -83
97 0 176 68 285 245 30 48 173 345 173 358 0 8 7 20 15 27 8 7 15 20 15 29 0
9 6 25 13 36 7 11 28 56 46 100 78 189 83 196 128 221 21 12 58 32 83 46 25
13 64 36 87 51 24 15 47 27 53 27 5 0 10 4 10 8 0 5 15 16 34 24 19 9 68 46
109 82 42 36 80 66 86 66 7 0 11 -30 11 -81 0 -95 21 -151 79 -207 62 -60 125
-71 263 -46 21 3 43 12 49 20 6 8 16 14 22 14 18 0 144 88 169 119 32 37 58
50 83 40 42 -16 113 -9 181 19 99 41 142 71 254 179 87 83 100 100 100 129 0
35 -28 64 -63 64 -11 0 -62 -42 -115 -96 -176 -174 -369 -259 -276 -121 79
116 115 202 134 317 23 135 -7 272 -70 318 -30 22 -88 34 -129 25z m-921 -133
c0 -6 -12 -29 -27 -53 -38 -59 -48 -76 -75 -127 -13 -25 -36 -64 -51 -87 -15
-24 -27 -45 -27 -47 0 -18 -154 -227 -216 -295 -98 -105 -178 -160 -243 -168
-74 -8 -95 0 -122 51 l-24 45 19 73 c10 40 24 83 32 95 8 12 14 27 14 32 0 35
151 218 256 312 68 61 197 131 278 152 32 9 61 18 64 21 10 11 122 6 122 -4z
m996 -36 c9 -61 -4 -198 -23 -243 -29 -69 -42 -97 -79 -174 -46 -95 -66 -99
-96 -22 -60 155 48 485 158 485 31 0 33 -2 40 -46z m-1456 -981 c0 -10 -14
-43 -30 -73 -17 -30 -41 -77 -54 -105 -133 -286 -178 -371 -242 -462 -98 -138
-174 -136 -174 5 0 85 51 214 124 316 29 40 165 178 261 264 80 71 115 88 115
55z M4090 3483 c-86 -37 -164 -115 -225 -225 -33 -59 -156 -310 -189
-383 -15 -33 -34 -75 -42 -92 -7 -18 -21 -48 -28 -65 -8 -18 -29 -63 -45 -101
-17 -37 -31 -73 -31 -81 0 -7 -7 -19 -15 -26 -8 -7 -15 -23 -15 -36 0 -12 -4
-25 -9 -28 -5 -4 -16 -26 -24 -50 -9 -25 -30 -61 -49 -82 -18 -20 -46 -51 -63
-70 -16 -18 -57 -63 -90 -100 -164 -183 -465 -487 -545 -548 -73 -57 -97 -69
-126 -62 -56 14 -68 114 -35 274 10 50 22 95 25 101 4 5 10 29 15 53 5 24 26
88 46 143 19 55 39 114 44 131 19 72 9 69 216 65 183 -3 187 -3 211 20 27 26
30 55 8 84 -13 18 -25 19 -184 17 -149 -3 -170 -1 -170 12 0 9 23 63 50 120
28 57 50 108 50 112 0 6 19 49 72 162 32 68 35 115 7 141 -12 11 -30 21 -39
21 -21 0 -70 -41 -70 -58 0 -6 -13 -40 -29 -74 -15 -35 -43 -99 -61 -143 -18
-44 -38 -93 -45 -110 -7 -16 -28 -65 -46 -108 l-32 -78 -115 3 c-109 3 -114 2
-133 -21 -25 -31 -24 -53 5 -80 21 -19 32 -22 96 -19 45 2 74 -1 77 -7 5 -16
-125 -179 -224 -283 -56 -58 -60 -67 -41 -107 15 -34 75 -36 106 -2 12 13 22
27 22 32 0 11 32 34 48 35 14 0 17 -41 4 -55 -5 -6 -19 -40 -30 -76 -32 -97
-31 -251 2 -317 29 -57 58 -84 113 -105 39 -15 45 -15 96 2 85 29 128 58 251
166 78 69 270 277 337 368 20 26 52 36 63 18 3 -5 -8 -33 -24 -62 -30 -54 -70
-136 -96 -196 -29 -69 -43 -100 -73 -163 -46 -100 -48 -115 -15 -145 39 -36
71 -30 106 20 15 22 28 49 28 60 0 11 7 29 15 39 8 11 15 27 15 35 0 13 54
127 83 176 20 33 127 196 137 208 161 200 307 334 404 371 90 34 128 -2 107
-101 -7 -32 -19 -68 -27 -80 -8 -12 -14 -30 -14 -39 0 -9 -6 -28 -14 -42 -23
-45 -96 -209 -121 -272 -9 -25 -24 -62 -33 -83 -9 -23 -15 -71 -16 -125 -1
-98 10 -123 71 -155 41 -21 66 -22 104 -2 16 8 44 23 62 32 72 37 165 119 291
257 19 22 38 37 42 33 3 -3 7 -41 8 -84 1 -86 19 -135 66 -182 36 -36 129 -71
188 -71 60 0 177 35 242 71 8 5 25 13 37 19 81 35 251 167 391 305 96 94 122
126 122 147 0 29 -40 68 -71 68 -10 0 -69 -51 -131 -113 -126 -126 -207 -197
-225 -197 -7 0 -16 -6 -20 -13 -23 -35 -186 -121 -290 -152 -59 -17 -65 -17
-107 -1 -66 25 -86 65 -86 172 0 49 6 98 14 117 12 29 20 35 72 46 33 7 75 19
94 26 114 43 151 58 156 66 3 5 11 9 19 9 16 0 101 54 127 81 10 9 25 23 35
31 53 39 113 145 113 200 0 114 -145 196 -267 153 -111 -40 -185 -93 -272
-199 -57 -69 -57 -69 -114 -177 -40 -77 -53 -91 -262 -303 -236 -237 -295
-274 -295 -184 0 25 48 162 85 243 57 125 75 167 75 179 0 8 4 17 9 20 11 7
81 223 81 249 0 24 -30 98 -52 126 -29 38 -95 63 -153 58 -114 -10 -205 -72
-377 -258 -19 -20 -43 -25 -52 -10 -18 28 64 130 284 361 8 8 53 58 99 110 46
52 93 106 105 120 13 14 31 39 41 55 11 17 39 56 62 87 24 31 43 59 43 63 0 3
19 36 43 73 24 37 59 98 77 136 29 59 34 80 34 137 -1 57 -5 72 -30 104 -26
34 -93 76 -119 74 -5 0 -26 -7 -45 -16z m74 -138 c8 -32 0 -65 -31 -124 -52
-98 -151 -252 -170 -264 -7 -4 -13 -13 -13 -18 0 -9 -125 -179 -165 -226 -5
-6 -21 -25 -34 -42 -48 -64 -70 -19 -26 54 13 22 65 121 115 220 50 99 96 189
103 200 54 93 115 180 139 200 39 33 74 33 82 0z m783 -1037 c21 -17 15 -52
-18 -101 -17 -26 -34 -47 -37 -47 -4 0 -20 -12 -37 -26 -16 -15 -43 -33 -60
-40 -16 -8 -37 -18 -45 -23 -46 -27 -173 -81 -190 -81 -43 0 -16 53 98 187 97
114 235 176 289 131z m-1487 -182 c0 -22 -23 -59 -62 -98 -10 -10 -18 -22 -18
-28 0 -15 -40 -12 -46 4 -8 20 12 54 59 104 46 47 67 53 67 18z M9167 2967 c-15 -12 -27 -27 -27 -32 0 -8 -79 -201 -135 -330 -7 -16
-28 -65 -46 -108 l-32 -78 -115 3 c-109 3 -114 2 -133 -21 -25 -31 -24 -53 5
-80 21 -19 32 -22 96 -19 45 2 74 -1 77 -7 8 -23 -216 -288 -357 -423 -59 -57
-178 -134 -223 -146 -41 -10 -45 16 -11 67 79 116 115 202 134 317 23 138 -7
272 -73 321 -25 19 -44 23 -89 23 -33 -1 -64 -7 -74 -15 -9 -7 -25 -18 -37
-24 -11 -5 -28 -22 -36 -36 -9 -15 -36 -59 -60 -99 -66 -107 -91 -193 -91
-312 0 -112 19 -176 71 -241 l32 -39 -24 -22 c-47 -43 -155 -107 -207 -122
-42 -12 -59 -13 -88 -4 -129 43 -109 303 41 530 46 68 71 97 172 196 71 69 93
97 93 117 0 33 -31 51 -74 43 -74 -14 -268 -217 -340 -356 -51 -99 -264 -280
-330 -280 -32 0 -66 32 -77 72 -8 30 -7 59 2 112 12 72 31 113 71 157 66 71
138 183 138 215 0 26 -51 74 -80 74 -39 0 -108 -84 -172 -208 -46 -91 -69
-123 -167 -242 -128 -154 -260 -289 -351 -359 -100 -77 -135 -95 -160 -81 -24
13 -25 36 -4 104 34 105 51 146 139 341 38 84 65 147 75 170 4 11 15 37 24 58
9 23 16 65 16 106 0 65 -2 69 -37 104 -30 31 -43 37 -78 37 -42 0 -103 -26
-140 -58 -37 -35 -159 -165 -196 -211 -20 -25 -75 -86 -122 -136 -52 -54 -87
-98 -87 -111 0 -53 96 -78 128 -33 8 12 49 61 90 108 41 47 95 110 121 140 99
116 168 183 187 179 31 -5 27 -43 -11 -125 -21 -43 -51 -107 -67 -143 -17 -36
-35 -72 -39 -80 -5 -8 -12 -22 -15 -30 -3 -8 -26 -62 -50 -120 -24 -58 -44
-112 -44 -121 0 -9 -7 -33 -15 -52 -8 -20 -15 -61 -15 -92 0 -76 31 -124 94
-147 43 -16 50 -16 99 0 60 19 141 65 206 118 76 62 255 248 276 287 31 59 75
48 75 -19 0 -14 12 -40 26 -59 75 -99 226 -100 330 -2 18 16 40 27 50 25 17
-3 19 -12 16 -89 -3 -73 -1 -91 19 -129 51 -97 138 -148 236 -137 87 10 122
19 134 33 6 8 17 14 24 14 6 0 31 14 53 30 23 17 46 30 51 30 4 0 27 20 49 45
50 53 71 65 97 54 60 -24 162 0 275 64 51 29 250 219 250 238 0 15 39 49 56
49 20 0 16 -25 -20 -130 -36 -105 -37 -248 -2 -318 31 -60 60 -86 115 -105 41
-13 50 -13 96 3 29 10 63 24 76 31 75 43 215 166 297 263 23 27 45 46 49 42 4
-3 6 -41 4 -83 -2 -80 7 -113 47 -175 33 -51 131 -98 204 -98 65 0 175 32 248
71 8 5 34 18 58 30 23 13 50 31 59 41 21 24 49 23 71 -3 26 -32 129 -109 144
-109 8 0 19 -5 25 -11 14 -14 119 -38 168 -39 54 0 184 25 198 39 6 6 18 11
27 11 14 0 104 45 165 83 90 55 232 174 349 291 109 110 126 146 87 185 -38
38 -57 27 -185 -98 -66 -65 -158 -151 -203 -190 -45 -39 -85 -76 -88 -81 -7
-11 -45 -14 -45 -3 0 3 7 42 16 86 14 70 15 109 5 321 -6 133 -8 257 -5 278 4
20 19 50 35 68 48 52 30 120 -32 120 -38 0 -61 -22 -125 -117 -64 -96 -185
-260 -248 -337 -99 -119 -327 -336 -353 -336 -7 0 -16 -6 -20 -13 -23 -35
-186 -121 -290 -152 -59 -17 -65 -17 -107 -1 -66 25 -86 65 -86 172 0 50 6 98
14 118 13 31 20 35 73 46 32 7 74 18 93 25 115 43 151 58 156 66 3 5 11 9 19
9 16 0 100 54 146 95 75 67 129 157 129 217 0 114 -145 196 -267 153 -111 -40
-185 -93 -272 -199 -56 -67 -59 -72 -111 -173 -18 -35 -36 -63 -41 -63 -4 0
-46 -39 -91 -87 -209 -218 -338 -336 -406 -372 -59 -31 -102 19 -102 117 0 55
31 229 44 251 4 5 10 29 15 53 5 24 26 88 46 143 19 55 39 114 44 131 19 72 9
69 216 65 183 -3 187 -3 211 20 27 26 30 55 8 84 -13 18 -25 19 -184 17 -149
-3 -170 -1 -170 12 0 9 23 63 50 120 28 57 50 108 50 112 0 4 9 26 19 48 62
132 74 161 78 195 4 31 1 42 -18 60 -29 27 -49 27 -82 -2z m-891 -683 c9 -61
-4 -198 -23 -243 -29 -69 -42 -97 -79 -174 -46 -95 -66 -99 -96 -22 -60 155
48 485 158 485 31 0 33 -2 40 -46z m1711 24 c7 -6 13 -20 13 -33 0 -22 -56
-115 -69 -115 -4 0 -17 -9 -29 -20 -11 -11 -38 -29 -59 -40 -21 -12 -45 -25
-53 -29 -52 -30 -173 -81 -190 -81 -43 0 -16 53 98 187 97 114 235 176 289
131z m623 -400 c0 -249 -8 -291 -69 -353 -37 -38 -85 -49 -175 -39 -81 9 -216
78 -216 110 0 8 55 69 123 137 112 110 277 311 277 336 0 12 29 30 48 31 9 0
12 -51 12 -222z"/>
</g>
</svg>
